HIERARCHY
ROOT Hips
{
  OFFSET 90.7885 88.945 -76.2838
  CHANNELS 6 Xposition Yposition Zposition Zrotation Xrotation Yrotation
  JOINT LeftUpLeg
  {
    OFFSET 8.64259 1.95398 -2.38835
    CHANNELS 3 Zrotation Xrotation Yrotation
    JOINT LeftLeg
    {
      OFFSET 43.7702 0 0
      CHANNELS 3 Zrotation Xrotation Yrotation
      JOINT LeftFoot
      {
        OFFSET 40.6238 0 0
        CHANNELS 3 Zrotation Xrotation Yrotation
        JOINT LeftToeBase
        {
          OFFSET 12.7242 0 0
          CHANNELS 3 Zrotation Xrotation Yrotation
          End Site
          {
            OFFSET 0 0 0
          }
        }
      }
    }
  }
  JOINT RightUpLeg
  {
    OFFSET -8.2249 1.95398 -2.59336
    CHANNELS 3 Zrotation Xrotation Yrotation
    JOINT RightLeg
    {
      OFFSET 43.5653 0 0
      CHANNELS 3 Zrotation Xrotation Yrotation
      JOINT RightFoot
      {
        OFFSET 40.6238 0 0
        CHANNELS 3 Zrotation Xrotation Yrotation
        JOINT RightToeBase
        {
          OFFSET 12.7242 0 0
          CHANNELS 3 Zrotation Xrotation Yrotation
          End Site
          {
            OFFSET 0 0 0
          }
        }
      }
    }
  }
  JOINT Spine
  {
    OFFSET 0.165834 0.87714 6.61349
    CHANNELS 3 Zrotation Xrotation Yrotation
    JOINT Spine1
    {
      OFFSET 7.38963 1.71661e-005 0
      CHANNELS 3 Zrotation Xrotation Yrotation
      JOINT Spine2
      {
        OFFSET 11.9445 1.14441e-005 0
        CHANNELS 3 Zrotation Xrotation Yrotation
        JOINT Spine3
        {
          OFFSET 14.7254 4.19617e-005 0
          CHANNELS 3 Zrotation Xrotation Yrotation
          JOINT Spine4
          {
            OFFSET 10.9679 0 0
            CHANNELS 3 Zrotation Xrotation Yrotation
            JOINT RightShoulder
            {
              OFFSET 2.46616 -1.6653 3.69651
              CHANNELS 3 Zrotation Xrotation Yrotation
              JOINT RightArm
              {
                OFFSET 13.0012 0 0
                CHANNELS 3 Zrotation Xrotation Yrotation
                JOINT RightForeArm
                {
                  OFFSET 28.7848 1.52588e-005 0
                  CHANNELS 3 Zrotation Xrotation Yrotation
                  JOINT RightHand
                  {
                    OFFSET 26.5688 1.52588e-005 0
                    CHANNELS 3 Zrotation Xrotation Yrotation
                    End Site
                    {
                      OFFSET 0 0 0
                    }
                  }
                }
              }
            }
            JOINT LeftShoulder
            {
              OFFSET 2.38034 -1.29275 -3.7523
              CHANNELS 3 Zrotation Xrotation Yrotation
              JOINT LeftArm
              {
                OFFSET 16.3182 6.10352e-005 0
                CHANNELS 3 Zrotation Xrotation Yrotation
                JOINT LeftForeArm
                {
                  OFFSET 27.0901 0 0
                  CHANNELS 3 Zrotation Xrotation Yrotation
                  JOINT LeftHand
                  {
                    OFFSET 24.5451 1.52588e-005 0
                    CHANNELS 3 Zrotation Xrotation Yrotation
                    End Site
                    {
                      OFFSET 0 0 0
                    }
                  }
                }
              }
            }
            JOINT Neck
            {
              OFFSET 5.0226 -0.0266342 0
              CHANNELS 3 Zrotation Xrotation Yrotation
              JOINT Head
              {
                OFFSET 6.69363 2.86102e-005 0
                CHANNELS 3 Zrotation Xrotation Yrotation
                End Site
                {
                  OFFSET 0 0 0
                }
              }
            }
          }
        }
      }
    }
  }
}
MOTION
Frames:	7
Frame Time:	0.0416667
36.7441 100.216 -338.002 151.019 -67.6679 145.463 -167.549 -21.5247 99.4637 -4.49474 27.766 -5.88974 72.1128 6.01735 1.05691 15.2776 -2.29793 4.74395 164.16 -28.3037 81.5415 -2.4978 -2.73949 -0.512326 72.1632 -4.48378 0.750561 22.377 -1.19624 3.78359 -2.44025 7.36385 -87.1469 12.2096 -3.50002 6.0839 0.528422 -3.2294 6.23136 -21.968 -5.16476 4.75442 -1.95536 -5.16475 4.75442 66.7696 -43.9531 -138.411 48.4062 -8.07503 11.4288 -6.03282 -24.2841 -15.4411 -18.9028 0.0137719 -13.9872 -80.4657 -8.89635 89.2032 -61.8758 -0.26683 18.7421 17.2309 22.2657 -23.3927 -1.58926 -0.11822 -8.42169 -15.8905 7.2594 -32.3538 -4.49388 6.95068 18.3475 
36.0202 100.308 -338.236 152.274 -69.8038 146.373 -169.611 -21.3999 97.156 -3.01551 23.9006 -4.29477 71.3756 5.53225 0.333205 16.6959 -2.68474 5.07854 163.953 -25.6393 81.1965 -3.57776 -4.95939 -0.232808 72.2277 -4.73413 0.33828 22.3591 -1.09356 3.57693 -2.35406 7.3058 -87.369 12.3228 -3.43046 5.64008 0.643514 -3.17933 5.78503 -21.8636 -4.96545 4.35114 -1.85097 -4.96545 4.35113 69.1214 -42.4782 -135.906 48.0705 -9.42781 10.0876 -2.22661 -22.9381 -15.7877 -21.6655 -0.105917 -11.3966 -80.0856 -11.5869 90.6651 -60.7461 1.49387 17.1714 16.7883 21.217 -23.5497 -3.93179 -0.0398577 -8.04881 -14.5119 6.97616 -29.7184 -4.15045 7.09235 16.9872 
35.0626 100.459 -338.794 154.534 -73.2426 148.479 -171.917 -18.5817 94.7352 -4.32943 19.4623 -2.87848 71.5167 5.59931 0.103474 18.5471 -3.39613 5.81087 164.265 -21.6124 81.4525 -4.7835 -8.0878 -0.0304829 72.0269 -5.07936 -0.693936 22.1505 -1.17407 3.76845 -2.27451 7.20075 -87.7296 12.5296 -3.43787 4.93364 0.853265 -3.2177 5.07978 -21.6719 -4.76072 3.67386 -1.65922 -4.76072 3.67386 71.9073 -39.4462 -133.574 47.4386 -11.5611 7.62912 3.3979 -25.9714 -15.5394 -26.6307 -0.438546 -9.3316 -79.1315 -16.5263 93.6613 -57.5339 3.22389 15.0481 15.9413 19.6564 -23.2674 -3.15169 -0.0633516 -8.61116 -12.122 6.98925 -24.3328 -4.43182 7.56539 14.1689 
34.0036 100.498 -339.457 162.291 -76.1485 156.157 -174.074 -16.2834 92.6612 -6.20578 14.0517 -1.23475 71.9928 5.82517 -0.718969 19.1303 -6.0599 9.08398 164.238 -17.4316 81.3412 -7.74095 -11.7419 0.433461 73.1533 -5.85492 -1.16999 21.206 -1.34526 4.2336 -2.02606 7.25332 -88.1764 12.4129 -3.15931 4.00313 0.739164 -2.98022 4.13808 -21.798 -4.21583 2.86909 -1.78538 -4.21582 2.8691 75.3998 -35.4058 -130.499 47.7263 -11.3779 6.43265 2.49671 -27.1549 -17.6662 -26.4638 -0.799026 -7.82063 -77.9352 -23.0574 96.6965 -53.0507 5.26186 12.2765 14.8037 16.7319 -23.2379 -4.51461 0.0107861 -9.62094 -8.28108 6.142 -18.482 -6.44984 6.92624 12.4543 
32.8172 100.114 -340.241 170.118 -77.1554 164.096 -175.21 -14.6354 91.776 -8.51053 10.0124 0.280303 72.2821 6.87289 -1.18725 21.5895 -7.16951 10.5227 163.974 -13.7706 81.1981 -12.7007 -14.3056 1.3025 75.7273 -7.05192 -1.03063 20.5479 -2.04926 5.69236 -1.84831 7.5547 -88.6544 11.8004 -3.0434 3.00545 0.12927 -2.90824 3.13641 -22.4207 -3.80571 1.9516 -2.40804 -3.80571 1.95158 78.7949 -31.026 -127.421 47.3036 -13.2742 3.37745 2.76734 -24.9788 -16.9591 -26.9224 -0.664253 -7.84769 -76.3159 -30.7703 99.9334 -47.1349 7.05017 9.08794 14.5337 15.2206 -24.1756 -4.99751 0.0441684 -10.2438 -4.02084 6.06996 -11.1924 -6.84357 6.82723 9.31931 
31.7918 99.5288 -341.366 171.622 -77.4503 167.039 -176.934 -3.95514 90.8563 -27.7202 4.09672 2.41373 75.2088 7.21464 -7.82308 22.2391 -7.86669 10.9726 164.408 -11.5863 82.7862 -16.0222 -14.1393 2.47269 77.5616 -7.74417 -0.266659 19.5334 -2.66467 6.96188 -1.65341 7.92512 -89.363 11.0441 -2.99599 1.55607 -0.62451 -2.92461 1.68647 -23.1857 -3.325 0.582903 -3.17304 -3.32499 0.582903 82.4442 -25.4732 -124.135 46.6041 -15.7852 -0.273825 5.29102 -24.3067 -15.6839 -27.4242 -0.284849 -9.41349 -74.8939 -40.7496 102.042 -39.2653 8.72175 6.18177 13.5473 11.4342 -25.8321 -2.13139 -0.0976053 -8.82893 -0.129561 6.11724 -2.1476 -7.73463 6.116 5.14907 
31.2188 99.9036 -342.063 174.061 -78.2344 169.168 177.678 6.44727 91.8312 -39.8951 -11.3263 6.52023 72.3132 1.65393 -45.9444 13.6635 -20.6804 26.2606 164.883 -11.1834 83.2927 -14.5846 -13.0596 2.08344 76.8686 -7.60461 1.18632 20.2911 -3.29675 8.13783 -1.29107 8.18973 -89.8339 10.5012 -2.49532 0.55313 -1.1675 -2.46856 0.662483 -23.7219 -2.54613 -0.222882 -3.70923 -2.54613 -0.222893 85.0224 -20.8218 -121.92 46.6922 -14.4245 -1.94231 3.46852 -22.9596 -17.1691 -25.1808 -0.334715 -9.09925 -73.9879 -49.5514 102.942 -33.0069 10.1744 3.54431 12.2377 8.40517 -26.4009 -1.14176 -0.118142 -6.76018 1.53516 5.94574 4.6907 -7.93221 5.10187 1.45342 
